<svg width="73" height="72" viewBox="0 0 73 72" fill="none" xmlns="http://www.w3.org/2000/svg">
<rect x="0.65332" width="72" height="72" rx="20" fill="#F6742E"/>
<path d="M54.3824 31.9198C54.3824 34.2892 53.5461 36.3381 51.8736 38.0664C50.201 39.7668 47.7619 40.9933 44.5562 41.7459C46.2845 42.2198 47.5947 43.0003 48.4867 44.0874C49.3787 45.1467 49.8247 46.3732 49.8247 47.767C49.8247 49.9691 49.1278 51.8786 47.734 53.4954C46.3681 55.1122 44.3611 56.3665 41.7129 57.2586C39.0647 58.1227 35.873 58.5548 32.1377 58.5548C30.7439 58.5548 29.6289 58.513 28.7926 58.4293C28.7647 59.2098 28.4302 59.7952 27.7891 60.1855C27.148 60.5757 26.3256 60.7709 25.3221 60.7709C24.3186 60.7709 23.6217 60.5479 23.2315 60.1018C22.8691 59.6558 22.7158 59.0008 22.7715 58.1366C23.0224 54.2341 23.5102 50.1503 24.235 45.8854C24.9597 41.5926 25.8796 37.4531 26.9946 33.4669C27.1898 32.77 27.58 32.2822 28.1654 32.0035C28.7508 31.7247 29.5174 31.5853 30.4651 31.5853C32.1656 31.5853 33.0158 32.0592 33.0158 33.007C33.0158 33.3972 32.9321 33.8432 32.7649 34.345C32.0401 36.5193 31.3154 39.4741 30.5906 43.2094C29.8658 46.9168 29.3501 50.457 29.0435 53.8299C30.3815 53.9414 31.4687 53.9971 32.3049 53.9971C36.2075 53.9971 39.0647 53.4396 40.8767 52.3246C42.7164 51.1817 43.6363 49.7322 43.6363 47.9761C43.6363 46.7495 43.1067 45.7182 42.0474 44.8819C41.016 44.0456 39.2738 43.5857 36.8208 43.5021C36.2633 43.4742 35.873 43.3348 35.65 43.0839C35.427 42.833 35.3155 42.4289 35.3155 41.8713C35.3155 41.063 35.4827 40.4079 35.8173 39.9061C36.1518 39.4044 36.765 39.1396 37.657 39.1117C39.6362 39.0559 41.4202 38.7632 43.0091 38.2336C44.6259 37.704 45.8943 36.9653 46.8141 36.0175C47.734 35.0419 48.194 33.9129 48.194 32.6307C48.194 31.0139 47.3995 29.7456 45.8106 28.8257C44.2217 27.8779 41.7826 27.404 38.4933 27.404C35.5106 27.404 32.6255 27.7943 29.838 28.5748C27.0504 29.3274 24.681 30.2891 22.7297 31.4599C21.8377 31.9895 21.085 32.2543 20.4718 32.2543C19.97 32.2543 19.5798 32.0871 19.301 31.7526C19.0501 31.3902 18.9247 30.9442 18.9247 30.4146C18.9247 29.7177 19.0641 29.1184 19.3428 28.6166C19.6494 28.1148 20.3603 27.5434 21.4753 26.9023C23.8168 25.5642 26.5626 24.5189 29.7125 23.7663C32.8624 23.0136 36.0821 22.6373 39.3714 22.6373C44.4168 22.6373 48.18 23.4875 50.661 25.1879C53.1419 26.8883 54.3824 29.1323 54.3824 31.9198Z" fill="white"/>
<path fill-rule="evenodd" clip-rule="evenodd" d="M31.6267 13.707C31.1161 12.8666 29.698 12.4669 28.1816 12.8042C27.4596 12.9649 26.7945 13.2785 26.2968 13.6928C25.7991 14.1072 25.4988 14.5974 25.4457 15.0819C25.0294 15.1017 24.6069 15.1766 24.2025 15.3021C23.7981 15.4276 23.4196 15.6014 23.0887 15.8135C22.7578 16.0256 22.4809 16.2718 22.2738 16.5382C22.0667 16.8046 21.9336 17.0859 21.8819 17.366C21.8302 17.6461 21.8611 17.9195 21.9727 18.1707C22.0843 18.4219 22.2744 18.6459 22.5323 18.83C22.7901 19.014 23.1106 19.1544 23.4755 19.2433C23.8404 19.3322 24.2425 19.3677 24.6588 19.3478L25.0108 20.9305C25.0108 20.9305 27.8067 19.929 29.5755 19.5247C31.4685 19.092 34.497 18.8154 34.497 18.8154L34.1461 17.2376C34.5316 17.0791 34.8808 16.8766 35.1736 16.6415C35.4665 16.4064 35.6973 16.1434 35.8529 15.8674C36.0085 15.5914 36.0859 15.308 36.0806 15.0332C36.0753 14.7584 35.9874 14.4976 35.822 14.2658C35.6566 14.034 35.4168 13.8356 35.1165 13.6821C34.8161 13.5286 34.461 13.4228 34.0714 13.3709C33.6818 13.3191 33.2654 13.322 32.846 13.3797C32.4265 13.4374 32.0122 13.5486 31.6267 13.707Z" fill="white"/>
<path d="M34.9461 20.8343L34.497 18.8154C34.497 18.8154 31.4685 19.092 29.5755 19.5247C27.8067 19.929 25.0108 20.9305 25.0108 20.9305L25.4589 22.9446C29.0415 21.7133 31.1189 21.2518 34.9461 20.8343Z" fill="#234394"/>
</svg>
